<?xml version="1.0" standalone="no"?>
<!DOCTYPE svg PUBLIC "-//W3C//DTD SVG 20010904//EN"
 "http://www.w3.org/TR/2001/REC-SVG-20010904/DTD/svg10.dtd">
<svg version="1.0" xmlns="http://www.w3.org/2000/svg"
 width="920.000000pt" height="921.000000pt" viewBox="0 0 920.000000 921.000000"
 preserveAspectRatio="xMidYMid meet">

<g transform="translate(0.000000,921.000000) scale(0.100000,-0.100000)"
fill="#000000" stroke="none">
<path d="M5952 9180 c-226 -60 -420 -242 -494 -465 -20 -61 -23 -90 -23 -220
0 -156 6 -189 57 -305 78 -175 266 -330 464 -380 103 -27 254 -27 356 -1 200
51 368 190 457 376 196 410 -30 890 -470 999 -91 22 -253 20 -347 -4z"/>
<path d="M9155 8698 c-97 -238 -249 -482 -378 -612 -173 -173 -448 -334 -747
-437 -177 -62 -441 -119 -625 -135 -38 -3 -88 -8 -110 -10 -22 -3 -380 -9
-795 -14 -662 -7 -937 -16 -1085 -35 -22 -2 -69 -7 -105 -10 -298 -27 -759
-121 -983 -201 -490 -174 -1020 -566 -1493 -1104 -111 -126 -235 -282 -230
-287 2 -2 37 19 77 47 425 295 999 524 1739 694 239 55 590 114 590 99 0 -50
-141 -570 -205 -760 -17 -51 -29 -95 -27 -98 3 -3 16 -5 29 -5 36 0 273 -48
426 -86 449 -111 865 -310 1127 -538 41 -36 91 -79 111 -95 l36 -31 77 139
c257 467 460 1029 521 1448 l18 122 76 6 c499 43 958 213 1308 484 410 318
653 804 682 1366 4 77 6 141 6 143 -1 1 -19 -39 -40 -90z"/>
<path d="M4285 3069 c-142 -9 -333 -27 -430 -39 -38 -5 -97 -11 -130 -15 -33
-3 -152 -15 -265 -27 -138 -14 -293 -22 -474 -24 l-269 -3 -166 -124 c-515
-384 -1006 -688 -1581 -979 -140 -71 -257 -131 -260 -134 -9 -10 348 6 475 21
1062 126 2212 565 3240 1237 l150 98 -85 -2 c-47 0 -139 -4 -205 -9z"/>
</g>
</svg>
